# File created by Blade
# Date/Time:  Tue Sep 30 19:35:54 2014
#---------------------------------------------------------
:version 1.10
:name HOM
:units
  mass 1.0
  length 1.000000
  angle deg
:documentation
     Acclaim Skeleton File
:root
   axis xyz
   order TX TY TZ RX RY RZ
   position 0.000000 0.000000 0.000000
   orientation 0 0 0
:bonedata
   begin
      id 1
      name Spine_dum
      direction 0.000000 1.000000 0.000000
      length 3.241213
      axis 0.0 0.0 0.0 xyz
   end
   begin
      id 2
      name LeftUpLeg_dum
      direction 1.000000 0.000000 0.000000
      length 3.434019
      axis 0.0 0.0 0.0 xyz
   end
   begin
      id 3
      name RightUpLeg_dum
      direction -1.000000 0.000000 0.000000
      length 3.434019
      axis 0.0 0.0 0.0 xyz
   end
   begin
      id 4
      name Spine
      direction 0.000000 1.000000 0.000000
      length 0.000000
      axis 0.0 0.0 0.0 xyz
      dof rx ry rz
   end
   begin
      id 5
      name Spine_dum1
      direction 0.000000 1.000000 0.000000
      length 18.382958
      axis 0.0 0.0 0.0 xyz
   end
   begin
      id 6
      name Spine_dum2
      direction 0.000000 1.000000 0.000000
      length 12.828261
      axis 0.0 0.0 0.0 xyz
   end
   begin
      id 7
      name Spine_dum3
      direction 0.000000 1.000000 0.000000
      length 12.828261
      axis 0.0 0.0 0.0 xyz
   end
   begin
      id 8
      name Head
      direction 0.000000 1.000000 0.000000
      length 4.527550
      axis 0.0 0.0 0.0 xyz
      dof rx ry rz
   end
   begin
      id 9
      name LeftShoulder
      direction 1.000000 0.000000 0.000000
      length 7.748055
      axis 0.0 0.0 -90.0 xyz
      dof rx ry rz
   end
   begin
      id 10
      name LeftArm
      direction 1.000000 0.000000 0.000000
      length 10.635614
      axis 0.0 0.0 -90.0 xyz
      dof rx ry rz
   end
   begin
      id 11
      name LeftForeArm
      direction 1.000000 0.000000 0.000000
      length 8.346755
      axis 0.0 0.0 -90.0 xyz
      dof ry rz rx
   end
   begin
      id 12
      name LeftHand
      direction 0.000000 0.000000 0.000000
      length 0.000000
      axis 0.0 0.0 -90.0 xyz
      dof rx ry rz
   end
   begin
      id 13
      name LeftHand_dum1
      direction 0.000000 0.000000 0.000000
      length 0.000000
      axis 0.0 0.0 -90.0 xyz
   end
   begin
      id 14
      name LeftHand_dum2
      direction 1.000000 0.000000 0.000000
      length 3.937000
      axis 0.0 0.0 -90.0 xyz
   end
   begin
      id 15
      name LeftHandThumb1
      direction 0.000000 0.000000 1.000000
      length 3.937000
      axis 0.0 0.0 -90.0 xyz
      dof rx rz ry
   end
   begin
      id 16
      name RightShoulder
      direction -1.000000 0.000000 0.000000
      length 7.748055
      axis 0.0 0.0 90.0 xyz
      dof rx ry rz
   end
   begin
      id 17
      name RightArm
      direction -1.000000 0.000000 0.000000
      length 10.635614
      axis 0.0 0.0 90.0 xyz
      dof rx ry rz
   end
   begin
      id 18
      name RightForeArm
      direction -1.000000 0.000000 0.000000
      length 8.346755
      axis 0.0 0.0 90.0 xyz
      dof ry rz rx
   end
   begin
      id 19
      name RightHand
      direction 0.000000 0.000000 0.000000
      length 0.000000
      axis 0.0 0.0 90.0 xyz
      dof rx ry rz
   end
   begin
      id 20
      name RightHand_dum1
      direction 0.000000 0.000000 0.000000
      length 0.000000
      axis 0.0 0.0 90.0 xyz
   end
   begin
      id 21
      name RightHand_dum2
      direction -1.000000 0.000000 0.000000
      length 3.937000
      axis 0.0 0.0 90.0 xyz
   end
   begin
      id 22
      name RightHandThumb1
      direction 0.000000 0.000000 1.000000
      length 3.937000
      axis 0.0 0.0 90.0 xyz
      dof rx rz ry
   end
   begin
      id 23
      name LeftUpLeg
      direction 0.000000 -1.000000 0.000000
      length 15.713025
      axis 0.0 0.0 0.0 xyz
      dof rx ry rz
   end
   begin
      id 24
      name LeftLeg
      direction 0.000000 -1.000000 0.000000
      length 14.435119
      axis 0.0 0.0 0.0 xyz
      dof rx ry rz
   end
   begin
      id 25
      name LeftFoot
      direction 0.000000 -0.258819 0.965926
      length 4.938895
      axis 15.0 0.0 0.0 xyz
      dof rx ry rz
   end
   begin
      id 26
      name LeftToeBase
      direction 0.000000 0.000000 1.000000
      length 2.952750
      axis 0.0 0.0 0.0 xyz
      dof rx ry rz
   end
   begin
      id 27
      name RightUpLeg
      direction 0.000000 -1.000000 0.000000
      length 15.713025
      axis 0.0 0.0 0.0 xyz
      dof rx ry rz
   end
   begin
      id 28
      name RightLeg
      direction 0.000000 -1.000000 0.000000
      length 14.435119
      axis 0.0 0.0 0.0 xyz
      dof rx ry rz
   end
   begin
      id 29
      name RightFoot
      direction 0.000000 -0.258819 0.965926
      length 4.938895
      axis 15.0 0.0 0.0 xyz
      dof rx ry rz
   end
   begin
      id 30
      name RightToeBase
      direction 0.000000 0.000000 1.000000
      length 2.952750
      axis 0.0 0.0 0.0 xyz
      dof rx ry rz
   end
:hierarchy
   begin
      root Spine_dum LeftUpLeg_dum RightUpLeg_dum
      Spine_dum Spine
      LeftUpLeg_dum LeftUpLeg
      RightUpLeg_dum RightUpLeg
      Spine Spine_dum1 Spine_dum2 Spine_dum3
      Spine_dum1 Head
      Spine_dum2 LeftShoulder
      Spine_dum3 RightShoulder
      LeftShoulder LeftArm
      LeftArm LeftForeArm
      LeftForeArm LeftHand
      LeftHand LeftHand_dum1 LeftHand_dum2
      LeftHand_dum1 LeftHandThumb1
      RightShoulder RightArm
      RightArm RightForeArm
      RightForeArm RightHand
      RightHand RightHand_dum1 RightHand_dum2
      RightHand_dum1 RightHandThumb1
      LeftUpLeg LeftLeg
      LeftLeg LeftFoot
      LeftFoot LeftToeBase
      RightUpLeg RightLeg
      RightLeg RightFoot
      RightFoot RightToeBase
   end

# File created by Blade
# Date/Time:  Tue Sep 23 19:15:59 2014
# Frame Rate: 120.000 fps
#------------------------------------------------------
:FULLY-SPECIFIED
:DEGREES
78
root 0.944305 32.521462 -1.406213 33.747843 -0.310417 -0.855177
Spine -39.210601 -5.659109 3.796610
Head 4.598806 -6.180990 -1.317184
LeftShoulder -18.992078 47.691533 13.032184
LeftArm 54.473419 -4.488814 -85.637815
LeftForeArm 77.494767 -0.000000 -11.944677
LeftHand 9.078982 0.000000 52.946275
LeftHandThumb1 -26.253704 0.000000 33.147579
RightShoulder -15.933386 -47.577084 -11.511368
RightArm 55.865172 2.892039 62.735929
RightForeArm 21.177862 -0.000000 -0.820459
RightHand 13.501458 -0.000000 4.663787
RightHandThumb1 -24.326973 -0.000000 -32.862282
LeftUpLeg -28.043172 1.152674 -0.168162
LeftLeg 0.154183 -0.000000 -0.000000
LeftFoot -7.769858 -0.118598 -4.515538
LeftToeBase 2.334113 -0.000000 -0.000000
RightUpLeg -27.286644 -3.579268 4.467968
RightLeg -2.881589 -0.000000 0.000000
RightFoot -5.152019 -1.109755 12.693778
RightToeBase 12.749964 -0.000000 -0.000000
79
root 0.955253 32.524023 -1.411584 33.784647 -0.303634 -0.831011
Spine -39.247835 -5.626193 3.748896
Head 4.566861 -6.127338 -1.294481
LeftShoulder -18.791377 47.659979 13.029257
LeftArm 54.315592 -3.764121 -85.798177
LeftForeArm 75.842363 -0.000000 -11.839866
LeftHand 10.479582 -0.000000 52.095484
LeftHandThumb1 -26.253704 0.000000 33.147579
RightShoulder -15.935603 -47.747765 -11.257568
RightArm 55.991564 2.416562 63.037942
RightForeArm 21.420460 -0.000000 -0.717177
RightHand 13.590324 -0.000000 4.385123
RightHandThumb1 -24.326973 -0.000000 -32.862282
LeftUpLeg -28.166000 1.007518 -0.112104
LeftLeg 0.369539 -0.000000 -0.000000
LeftFoot -8.208269 -0.085312 -5.194858
LeftToeBase 1.944079 -0.000000 -0.000000
RightUpLeg -27.349350 -3.511670 4.393525
RightLeg -2.855246 -0.000000 0.000000
RightFoot -5.146621 -1.236949 12.656008
RightToeBase 12.652325 -0.000000 -0.000000
80
root 0.964253 32.527360 -1.416581 33.820844 -0.274502 -0.806686
Spine -39.279885 -5.624306 3.707319
Head 4.519945 -6.074011 -1.241729
LeftShoulder -18.578388 47.596133 13.044930
LeftArm 54.096459 -2.992700 -85.894692
LeftForeArm 74.384564 -0.000000 -11.691386
LeftHand 11.614006 -0.000000 51.343006
LeftHandThumb1 -26.253704 0.000000 33.147579
RightShoulder -15.955325 -47.913545 -10.967526
RightArm 56.101869 1.912066 63.303851
RightForeArm 21.615423 0.000000 -0.532563
RightHand 13.689044 0.000000 3.905053
RightHandThumb1 -24.326973 -0.000000 -32.862282
LeftUpLeg -28.308419 0.915419 -0.069918
LeftLeg 0.618940 -0.000000 -0.000000
LeftFoot -8.806675 -0.253646 -6.195597
LeftToeBase 1.751640 -0.000000 -0.000000
RightUpLeg -27.395819 -3.430679 4.315855
RightLeg -2.851654 -0.000000 0.000000
RightFoot -5.145446 -1.380001 12.660086
RightToeBase 12.640737 -0.000000 -0.000000
81
root 0.973900 32.530139 -1.421468 33.851819 -0.237897 -0.766403
Spine -39.305949 -5.642530 3.662400
Head 4.464996 -6.008812 -1.201557
LeftShoulder -18.394921 47.558197 13.032694
LeftArm 53.922276 -2.258764 -86.033557
LeftForeArm 72.804275 -0.000000 -11.577026
LeftHand 12.932125 -0.000000 50.471364
LeftHandThumb1 -26.253704 0.000000 33.147579
RightShoulder -15.957946 -48.050064 -10.705884
RightArm 56.169267 1.421967 63.662052
RightForeArm 21.656747 -0.000000 -0.310814
RightHand 13.796787 -0.000000 3.528646
RightHandThumb1 -24.326973 -0.000000 -32.862282
LeftUpLeg -28.460268 0.673285 0.047597
LeftLeg 0.939363 -0.000000 -0.000000
LeftFoot -9.500647 -0.362999 -7.066307
LeftToeBase 1.851569 -0.000000 -0.000000
RightUpLeg -27.434505 -3.381177 4.231404
RightLeg -2.850698 -0.000000 0.000000
RightFoot -5.151117 -1.492357 12.656102
RightToeBase 12.590739 -0.000000 -0.000000
82
root 0.985978 32.533859 -1.429632 33.930079 -0.243574 -0.712767
Spine -39.367135 -5.633127 3.590200
Head 4.381433 -5.937208 -1.158038
LeftShoulder -18.197225 47.506360 13.026247
LeftArm 53.689098 -1.515876 -86.150113
LeftForeArm 71.075283 -0.000000 -11.340519
LeftHand 14.393008 -0.000000 49.464423
LeftHandThumb1 -26.253704 0.000000 33.147579
RightShoulder -15.972474 -48.143341 -10.463422
RightArm 56.194179 0.739691 63.826804
RightForeArm 21.960694 -0.000000 -0.021667
RightHand 13.991242 -0.000000 3.046421
RightHandThumb1 -24.326973 -0.000000 -32.862282
LeftUpLeg -28.690023 0.505433 0.102726
LeftLeg 1.316893 -0.000000 -0.000000
LeftFoot -10.111815 -0.329646 -7.777576
LeftToeBase 0.357354 -0.000000 -0.000000
RightUpLeg -27.431007 -3.095134 3.983130
RightLeg -3.024481 -0.000000 0.000000
RightFoot -5.099450 -1.772452 12.712738
RightToeBase 12.552214 -0.000000 -0.000000
83
root 0.997989 32.537626 -1.435465 33.970500 -0.204593 -0.665704
Spine -39.397017 -5.662922 3.558853
Head 4.304118 -5.866484 -1.138108
LeftShoulder -18.029198 47.488987 12.963476
LeftArm 53.505909 -0.802229 -86.268861
LeftForeArm 69.609777 -0.000000 -11.163315
LeftHand 15.598744 -0.000000 48.631264
LeftHandThumb1 -26.253704 0.000000 33.147579
RightShoulder -15.939070 -48.250531 -10.265432
RightArm 56.179261 0.185104 64.197968
RightForeArm 21.985352 -0.000000 0.301251
RightHand 14.313512 -0.000000 2.711593
RightHandThumb1 -24.326973 -0.000000 -32.862282
LeftUpLeg -28.887681 0.227482 0.218968
LeftLeg 1.703682 -0.000000 -0.000000
LeftFoot -10.761226 -0.412581 -8.444938
LeftToeBase -0.054104 -0.000000 0.000000
RightUpLeg -27.448949 -3.016460 3.858786
RightLeg -3.075531 -0.000000 0.000000
RightFoot -5.088228 -1.895056 12.727056
RightToeBase 12.554515 -0.000000 -0.000000
